<svg viewBox="0 0 760 700" xmlns="http://www.w3.org/2000/svg" font-family="system-ui, -apple-system, sans-serif" role="img">
  <title>Smart Valve — MOTOR_CTRL Sub-State Machine (final target)</title>
  <desc>Motor control: BRAKE_FIRST 50 ms, SET_DIRECTION, ACCELERATE DAC ramp, RUNNING. In RUNNING four exit conditions are polled: stall current or encoder target to BRAKE_STOP, a new command loops back to reverse, timeout to FAULT safe-stop. Then VERIFY cross-checks stall and encoder (fault on mismatch), then DONE writes position to FRAM and returns to IDLE.</desc>
  <style>
    :root {
      --text-primary: #1a1a1a; --text-secondary: #555; --text-muted: #8a8a8a;
      --text-accent: #2563eb; --surface-0: #f6f7f9; --surface-1: #ffffff;
      --border-strong: #bcbcbc; --border-stronger: #8a8a8a;
    }
    @media (prefers-color-scheme: dark) {
      :root {
        --text-primary: #ededed; --text-secondary: #b3b3b3; --text-muted: #8f8f8f;
        --text-accent: #6ea8fe; --surface-0: #1d1f22; --surface-1: #2a2d31;
        --border-strong: #555; --border-stronger: #8a8a8a;
      }
    }
    .ttl { fill: var(--text-primary); font-size: 15px; font-weight: 600; }
    .sub { fill: var(--text-secondary); font-size: 11px; }
    .ftl { fill: var(--text-muted); font-size: 14px; font-weight: 600; }
    .fsub{ fill: var(--text-muted); font-size: 10.5px; }
    .box { fill: var(--surface-1); stroke: var(--text-accent); stroke-width: 2; }
    .warn{ fill: var(--surface-0); stroke: var(--border-strong); stroke-width: 1.5; stroke-dasharray: 5 4; }
    .dia { fill: var(--surface-1); stroke: var(--text-accent); stroke-width: 2; }
    .e   { stroke: var(--border-stronger); stroke-width: 2; fill: none; }
    .d   { stroke: var(--text-muted); stroke-width: 1.5; fill: none; stroke-dasharray: 5 4; }
    .el  { fill: var(--text-accent); font-size: 11.5px; font-weight: 600; }
    .rl  { fill: var(--text-muted); font-size: 11px; }
    .lg  { fill: var(--text-secondary); font-size: 12px; }
  </style>
  <defs>
    <marker id="a" markerWidth="9" markerHeight="9" refX="7" refY="3" orient="auto"><path d="M0,0 L7,3 L0,6 Z" fill="var(--border-stronger)"/></marker>
    <marker id="am" markerWidth="9" markerHeight="9" refX="7" refY="3" orient="auto"><path d="M0,0 L7,3 L0,6 Z" fill="var(--text-muted)"/></marker>
  </defs>

  <path class="e" marker-end="url(#a)" d="M290,80 V108"/>
  <path class="e" marker-end="url(#a)" d="M290,166 V194"/>
  <path class="e" marker-end="url(#a)" d="M290,252 V280"/>
  <path class="e" marker-end="url(#a)" d="M290,346 V372"/>
  <path class="e" marker-end="url(#a)" d="M290,438 V470"/>
  <text class="el" x="300" y="460">① stall (current↑)  ② encoder = target</text>
  <path class="e" marker-end="url(#a)" d="M290,526 V554"/>
  <path class="e" marker-end="url(#a)" d="M290,614 V642"/>

  <path class="e" marker-end="url(#a)" d="M262,405 H120 V52 H168"/>
  <text class="el" x="106" y="240" transform="rotate(-90 106 240)">③ new command → reverse</text>

  <path class="d" marker-end="url(#am)" d="M318,405 H560 V440"/>
  <text class="rl" x="400" y="398">④ timeout</text>

  <path class="d" marker-end="url(#am)" d="M410,583 H620 V500"/>
  <text class="rl" x="470" y="576">on mismatch</text>

  <rect class="box" x="170" y="26" width="240" height="54" rx="9"/>
  <text class="ttl" x="290" y="49" text-anchor="middle">BRAKE_FIRST</text>
  <text class="sub" x="290" y="67" text-anchor="middle">50 ms brake (stop first)</text>

  <rect class="box" x="170" y="112" width="240" height="54" rx="9"/>
  <text class="ttl" x="290" y="135" text-anchor="middle">SET_DIRECTION</text>
  <text class="sub" x="290" y="153" text-anchor="middle">DIR pin (open / close)</text>

  <rect class="box" x="170" y="198" width="240" height="54" rx="9"/>
  <text class="ttl" x="290" y="221" text-anchor="middle">ACCELERATE</text>
  <text class="sub" x="290" y="239" text-anchor="middle">DAC speed ramp</text>

  <rect class="box" x="170" y="284" width="240" height="62" rx="9"/>
  <text class="ttl" x="290" y="311" text-anchor="middle">RUNNING</text>
  <text class="sub" x="290" y="330" text-anchor="middle">poll conditions each loop</text>

  <polygon class="dia" points="290,372 330,405 290,438 250,405"/>
  <text class="sub" x="290" y="409" text-anchor="middle">exit?</text>

  <rect class="box" x="170" y="470" width="240" height="54" rx="9"/>
  <text class="ttl" x="290" y="493" text-anchor="middle">BRAKE_STOP</text>
  <text class="sub" x="290" y="511" text-anchor="middle">DAC=0, brake</text>

  <rect class="box" x="170" y="556" width="240" height="58" rx="9"/>
  <text class="ttl" x="290" y="581" text-anchor="middle">VERIFY</text>
  <text class="sub" x="290" y="599" text-anchor="middle">stall ↔ encoder cross-check</text>

  <rect class="box" x="170" y="642" width="240" height="50" rx="9"/>
  <text class="ttl" x="290" y="663" text-anchor="middle">DONE</text>
  <text class="sub" x="290" y="681" text-anchor="middle">position → FRAM → IDLE</text>

  <rect class="warn" x="500" y="440" width="200" height="60" rx="9"/>
  <text class="ftl" x="600" y="465" text-anchor="middle">FAULT</text>
  <text class="fsub" x="600" y="483" text-anchor="middle">safe-stop + report</text>

  <rect class="box" x="500" y="30" width="24" height="15" rx="4"/>
  <text class="lg" x="532" y="42">normal flow</text>
  <rect class="warn" x="500" y="56" width="24" height="15" rx="4"/>
  <text class="lg" x="532" y="68">fault / exception</text>
</svg>
